<svg width="150" height="49" viewBox="0 0 150 49" fill="none" xmlns="http://www.w3.org/2000/svg">
<path d="M45.84 16.48V32.79C45.84 39.09 46.2833 43.71 47.17 46.65C46.33 47.0233 45.2333 47.21 43.88 47.21C42.5267 47.21 41.6167 46.9067 41.15 46.3C40.6833 45.6933 40.45 44.6667 40.45 43.22C40.45 42.8933 40.45 41.26 40.45 38.32C40.4967 35.38 40.52 31.2033 40.52 25.79C40.5667 20.33 40.59 14.38 40.59 7.94C36.2967 16.5733 31.6067 29.5467 26.52 46.86C25.96 47.0467 25.33 47.14 24.63 47.14C22.81 47.14 21.6433 46.5333 21.13 45.32C20.01 42.8 17.8867 37.2 14.76 28.52C11.68 19.7933 8.92667 12.98 6.5 8.08V32.79C6.5 39.09 6.94333 43.71 7.83 46.65C6.99 47.0233 6.12667 47.21 5.24 47.21C3.88667 47.21 2.97667 46.9067 2.51 46.3C2.04333 45.6933 1.81 44.6667 1.81 43.22C1.81 42.4733 1.83333 40.63 1.88 37.69C1.92667 34.75 1.95 32.4633 1.95 30.83V13.19C1.95 7.96333 1.50667 3.85666 0.62 0.869997C2.11333 0.496663 3.46667 0.309996 4.68 0.309996C6.64 0.309996 8.29667 1.43 9.65 3.67C11.47 6.84333 13.3133 10.7167 15.18 15.29C17.0467 19.8633 18.4933 23.7367 19.52 26.91C20.5933 30.0367 22.0867 34.5867 24 40.56C25.4467 34.7733 27.3833 28.52 29.81 21.8C32.2833 15.08 35.0367 9.03667 38.07 3.67C39.33 1.43 41.0333 0.309996 43.18 0.309996C44.7667 0.309996 46.0733 0.496663 47.1 0.869997C46.26 3.67 45.84 8.87333 45.84 16.48ZM73.5513 32.23C72.6646 30.13 70.7746 25.16 67.8813 17.32C65.5479 24.04 63.7046 28.9867 62.3513 32.16C65.1513 32.2533 67.2979 32.3 68.7913 32.3C70.9846 32.3 72.5713 32.2767 73.5513 32.23ZM67.6713 36.01C66.6913 36.01 64.4279 35.9633 60.8813 35.87C60.6479 36.43 60.1346 37.6667 59.3413 39.58C58.5946 41.4933 57.9879 43.1033 57.5213 44.41C57.0546 45.67 56.6579 46.9067 56.3313 48.12C53.5779 47.7467 52.2013 47.0233 52.2013 45.95C52.2013 45.4833 52.4113 44.7133 52.8313 43.64C53.2979 42.5667 54.0679 40.7933 55.1413 38.32C56.2613 35.8 57.3113 33.28 58.2913 30.76C61.9313 21.38 64.3113 14.8 65.4313 11.02C66.1779 10.88 67.0413 10.81 68.0213 10.81C69.0479 10.81 69.7713 10.9733 70.1913 11.3C70.6113 11.58 71.0779 12.3967 71.5913 13.75C71.9646 14.73 72.9679 17.46 74.6013 21.94C76.2813 26.3733 77.5879 29.78 78.5213 32.16C80.7613 37.6667 82.9546 42.45 85.1013 46.51C83.7946 47.1633 82.7446 47.49 81.9513 47.49C80.5513 47.49 79.5946 47.0233 79.0813 46.09C78.8013 45.4367 77.4246 42.03 74.9513 35.87C70.9379 35.9633 68.5113 36.01 67.6713 36.01ZM95.867 14.8C96.007 15.92 96.077 19.5367 96.077 25.65H100.557C103.684 25.65 105.924 25.58 107.277 25.44C107.417 25.8133 107.487 26.3267 107.487 26.98C107.487 27.9133 107.277 28.5667 106.857 28.94C106.484 29.2667 105.877 29.4533 105.037 29.5C104.057 29.5467 102.727 29.57 101.047 29.57H96.077C96.077 37.0833 96.217 41.61 96.497 43.15C98.177 43.2433 99.5304 43.29 100.557 43.29C106.717 43.29 110.754 42.87 112.667 42.03C112.994 42.87 113.157 43.7567 113.157 44.69C113.157 45.4367 112.97 45.9733 112.597 46.3C111.897 46.8133 108.724 47.07 103.077 47.07C101.957 47.07 100.16 47.0467 97.687 47C95.2137 47 93.9304 47 93.837 47C92.6704 46.9533 91.877 46.6967 91.457 46.23C91.0837 45.7633 90.897 44.9933 90.897 43.92C90.897 43.2667 90.9204 41.8433 90.967 39.65C91.0137 37.41 91.037 35.66 91.037 34.4V23.69C91.037 18.37 90.757 14.1933 90.197 11.16C94.7704 10.8333 99.0404 10.67 103.007 10.67C108.654 10.67 111.827 10.95 112.527 11.51C112.9 11.8367 113.087 12.3733 113.087 13.12C113.087 14.0533 112.924 14.94 112.597 15.78C110.357 15.0333 106.857 14.66 102.097 14.66C100.277 14.66 98.2004 14.7067 95.867 14.8ZM149.786 47C148.852 47.0933 148.129 47.14 147.616 47.14C146.029 47.14 144.909 46.6733 144.256 45.74C142.856 43.5933 140.219 39.3 136.346 32.86C132.472 26.42 129.299 21.4033 126.826 17.81C126.919 21.31 126.966 26.8167 126.966 34.33C126.966 40.49 127.339 44.6433 128.086 46.79C127.246 47.0233 126.429 47.14 125.636 47.14C124.376 47.14 123.536 46.9067 123.116 46.44C122.696 45.9733 122.486 45.18 122.486 44.06C122.486 43.5 122.486 42.0767 122.486 39.79C122.532 37.5033 122.556 35.7067 122.556 34.4V23.48C122.556 17.4133 122.206 13.26 121.506 11.02C122.346 10.74 123.349 10.6 124.516 10.6C125.962 10.6 127.176 11.1367 128.156 12.21C129.976 14.0767 132.636 17.7633 136.136 23.27C139.636 28.7767 142.716 33.98 145.376 38.88C145.142 35.52 145.026 30.5033 145.026 23.83C145.026 18.79 144.886 14.45 144.606 10.81C145.352 10.7167 146.029 10.67 146.636 10.67C148.782 10.67 149.856 11.37 149.856 12.77C149.856 12.9567 149.809 13.68 149.716 14.94C149.669 16.2 149.599 17.7633 149.506 19.63C149.459 21.4967 149.436 23.27 149.436 24.95V34.33C149.436 39.79 149.552 44.0133 149.786 47Z" fill="white"/>
</svg>
