<svg width="47" height="46" viewBox="0 0 47 46" fill="none" xmlns="http://www.w3.org/2000/svg">
<path d="M45.0417 24.8769H1.95833C0.87733 24.8769 0 24.0182 0 22.9602C0 21.9022 0.87733 21.0436 1.95833 21.0436H45.0417C46.1227 21.0436 47 21.9022 47 22.9602C47 24.0182 46.1227 24.8769 45.0417 24.8769Z" fill="white"/>
<path d="M45.0417 10.1823H1.95833C0.87733 10.1823 0 9.32363 0 8.26563C0 7.20762 0.87733 6.34896 1.95833 6.34896H45.0417C46.1227 6.34896 47 7.20762 47 8.26563C47 9.32363 46.1227 10.1823 45.0417 10.1823Z" fill="white"/>
<path d="M45.0417 39.571H1.95833C0.87733 39.571 0 38.7124 0 37.6544C0 36.5963 0.87733 35.7377 1.95833 35.7377H45.0417C46.1227 35.7377 47 36.5963 47 37.6544C47 38.7124 46.1227 39.571 45.0417 39.571Z" fill="white"/>
</svg>
