<svg width="64" height="64" viewBox="0 0 64 64" fill="none" xmlns="http://www.w3.org/2000/svg">
<path d="M2 6H8L18 46H50L55.2 30M34.7 22H12H34.7Z" stroke="#202020" stroke-width="2" stroke-miterlimit="10" stroke-linecap="round" stroke-linejoin="round"/>
<path d="M20 58C22.2091 58 24 56.2091 24 54C24 51.7909 22.2091 50 20 50C17.7909 50 16 51.7909 16 54C16 56.2091 17.7909 58 20 58Z" stroke="#202020" stroke-width="2" stroke-miterlimit="10" stroke-linecap="round" stroke-linejoin="round"/>
<path d="M46 58C48.2091 58 50 56.2091 50 54C50 51.7909 48.2091 50 46 50C43.7909 50 42 51.7909 42 54C42 56.2091 43.7909 58 46 58Z" stroke="#202020" stroke-width="2" stroke-miterlimit="10" stroke-linecap="round" stroke-linejoin="round"/>
<path d="M52.4004 18L57.2004 22.8L62.0004 18" stroke="#202020" stroke-width="2" stroke-miterlimit="10" stroke-linecap="round" stroke-linejoin="round"/>
<path d="M45.7002 30.0002C44.1421 29.9873 42.6019 29.6658 41.1687 29.0544C39.7354 28.4431 38.4375 27.5539 37.3497 26.4382C36.2619 25.3226 35.4059 24.0025 34.831 22.5542C34.2561 21.106 33.9737 19.5582 34.0002 18.0002C33.8499 16.3796 34.0394 14.7455 34.5565 13.2023C35.0736 11.659 35.907 10.2407 37.0035 9.03785C38.0999 7.83502 39.4352 6.87417 40.9241 6.21674C42.413 5.5593 44.0226 5.21973 45.6502 5.21973C47.2778 5.21973 48.8874 5.5593 50.3763 6.21674C51.8652 6.87417 53.2005 7.83502 54.2969 9.03785C55.3934 10.2407 56.2268 11.659 56.7439 13.2023C57.261 14.7455 57.4505 16.3796 57.3002 18.0002C57.3149 19.4304 57.0779 20.8521 56.6002 22.2002" stroke="#202020" stroke-width="2" stroke-miterlimit="10" stroke-linecap="round" stroke-linejoin="round"/>
</svg>
